<svg viewBox="0 0 866 866" xmlns="http://www.w3.org/2000/svg">
    <g id="Group">
        <path id="anchor" fill="#0749ac" stroke="none" d="M 465 273 C 465 290.673096 450.673126 305 433 305 C 415.326874 305 401 290.673096 401 273 C 401 255.326904 415.326874 241 433 241 C 450.673126 241 465 255.326904 465 273 Z M 486.100006 353 C 512 335.799988 529 306.400024 529 273 C 529 220 486 177 433 177 C 380 177 337 220 337 273 C 337 306.400024 354 335.799988 379.899994 353 L 369 353 C 351.300018 353 337 367.299988 337 385 C 337 402.700012 351.300018 417 369 417 L 401 417 L 401 625 L 353 625 C 300 625 257 582 257 529 L 257 522.900024 L 264 529.900024 C 273.399994 539.299988 288.600006 539.299988 297.899994 529.900024 C 307.200012 520.5 307.300018 505.299988 297.899994 496 L 242 440 C 232.600006 430.600006 217.400009 430.600006 208.100006 440 L 152 496 C 142.600006 505.399994 142.600006 520.599976 152 529.900024 C 161.399994 539.200012 176.600006 539.299988 185.900009 529.900024 L 192.900009 522.900024 L 192.900009 529 C 192.900009 617.400024 264.5 689 352.899994 689 L 432.899994 689 L 512.900024 689 C 601.299988 689 672.900024 617.400024 672.900024 529 L 672.900024 522.900024 L 679.900024 529.900024 C 689.299988 539.299988 704.5 539.299988 713.799988 529.900024 C 723.099976 520.5 723.200012 505.299988 713.799988 496 L 657.799988 440 C 648.400024 430.600006 633.200012 430.600006 623.900024 440 L 567.900024 496 C 558.5 505.399994 558.5 520.599976 567.900024 529.900024 C 577.299988 539.200012 592.5 539.299988 601.799988 529.900024 L 608.799988 522.900024 L 608.799988 529 C 608.799988 582 565.799988 625 512.799988 625 L 464.799988 625 L 464.799988 417 L 496.799988 417 C 514.5 417 528.799988 402.700012 528.799988 385 C 528.799988 367.299988 514.5 353 496.799988 353 L 485.899994 353 Z"/>
        <path id="Shape" fill="#0749ac" fill-rule="evenodd" stroke="none" d="M 433 866 C 193.861053 866 0 672.139038 0 433 C 0 193.860962 193.861053 0 433 0 C 672.138977 0 866 193.860962 866 433 C 866 672.139038 672.138977 866 433 866 Z M 433 798.868225 C 635.063232 798.868225 798.868225 635.063232 798.868225 433 C 798.868225 230.936768 635.063232 67.131775 433 67.131775 C 230.936768 67.131775 67.13179 230.936768 67.13179 433 C 67.13179 635.063232 230.936768 798.868225 433 798.868225 Z"/>
    </g>
</svg>
