<svg width="991" height="991" viewBox="0 0 991 991" xmlns="http://www.w3.org/2000/svg">
    <g id="logo-circle">
        <path id="path1" fill="#ff9e5b" fill-rule="evenodd" stroke="none" d="M 860 495.5 C 860 294.1922 696.8078 131 495.5 131 C 294.1922 131 131 294.1922 131 495.5 C 131 696.8078 294.1922 860 495.5 860 C 696.8078 860 860 696.8078 860 495.5 Z"/>
        <path id="path2" fill="#000000" fill-rule="evenodd" stroke="none" d="M 925 495.5 C 925 258.293701 732.706299 66 495.5 66 C 258.293701 66 66 258.293701 66 495.5 C 66 732.706299 258.293701 925 495.5 925 C 732.706299 925 925 732.706299 925 495.5 Z M 495.5 131 C 696.8078 131 860 294.1922 860 495.5 C 860 696.8078 696.8078 860 495.5 860 C 294.1922 860 131 696.8078 131 495.5 C 131 294.1922 294.1922 131 495.5 131 Z"/>
    </g>
    <g id="logo-ship">
        <path id="Path" fill="#000000" stroke="none" d="M 330.665771 267.336609 C 447.882782 465.625793 520.094238 641.991943 548.833679 797.313416 C 477.04422 702.221802 410.226501 603.438049 348.626587 501.444672 C 346.026123 497.090515 340.401917 495.572418 335.984467 498.068848 C 331.567078 500.565308 329.937561 506.162323 332.329987 510.642975 C 387.848602 614.584167 466.4216 733.947144 551.428894 857.56604 L 520.061829 903.043579 L 232.285934 429.839844 C 253.113602 402.168152 291.534332 343.616943 307.530914 271.065918 C 308.62088 265.986938 312.723907 262.114685 317.825928 261.291199 C 322.949371 260.502258 328.042755 262.865295 330.671722 267.34436 Z M 316.709656 406.17395 L 316.674988 406.195007 C 321.671173 414.410461 331.118378 418.779358 340.594177 417.338196 C 350.083008 415.841248 357.729431 408.816895 360.033051 399.486084 C 362.280365 390.141968 358.722412 380.387207 350.951019 374.713806 C 343.235535 369.054199 332.837097 368.587097 324.621429 373.583374 C 319.248413 376.850952 315.390472 382.141296 313.930817 388.252258 C 312.415497 394.34967 313.407257 400.821594 316.674988 406.194885 Z"/>
        <path id="path3" fill="#000000" stroke="none" d="M 560.188843 562.29834 L 530.114319 613.257446 C 495.487762 517.123169 453.238098 423.913147 403.804504 334.505554 C 425.803802 336.559021 447.552246 340.854614 468.667847 347.387756 L 559.673096 497.032104 C 571.927185 517.02594 572.076599 542.101929 560.187256 562.295654 Z"/>
        <path id="path4" fill="#000000" stroke="none" d="M 563.145447 721.374268 C 557.261597 698.503296 550.574402 675.171387 542.925293 651.427612 L 586.356384 577.768127 L 586.377441 577.802795 C 604.074524 547.95166 603.867004 510.754944 585.773254 481.158356 L 503.958618 346.626587 C 518.391052 349.198486 532.444641 353.567871 545.785217 359.653198 C 571.190918 371.601563 592.506409 390.880371 606.887207 414.995178 L 637.412292 465.189026 L 684.972229 436.265747 L 665.472168 404.200867 C 663.385193 400.769043 662.713318 396.61908 663.677551 392.660828 C 664.607361 388.723999 667.112976 385.348206 670.579773 383.239929 C 674.046509 381.131653 678.161499 380.480957 682.119751 381.445313 C 686.077637 382.409729 689.453369 384.915344 691.540588 388.347534 L 711.040649 420.412415 L 733.295227 406.878418 C 736.761719 404.770264 740.911682 404.098389 744.869812 405.062683 C 748.806702 405.992493 752.182495 408.498108 754.290771 411.964844 C 756.398926 415.431396 757.07074 419.58136 756.085327 423.504944 C 755.120972 427.462769 752.615356 430.838562 749.14856 432.946838 L 726.893982 446.480835 L 746.394043 478.545715 C 748.502136 482.012085 749.153015 486.127411 748.188721 490.085724 C 747.224365 494.043579 744.774353 497.432922 741.307678 499.541168 C 737.840881 501.649475 733.670166 502.286469 729.746521 501.301239 C 725.788635 500.336792 722.43396 497.865814 720.325623 494.399048 L 700.825623 462.334167 L 653.265625 491.257477 L 697.620361 564.192139 C 700.424133 568.80249 700.55603 574.562927 698.016418 579.288574 C 695.463501 584.070068 690.583496 587.132935 685.213318 587.359619 L 640.672241 589.232788 L 663.650513 627.01709 C 672.652283 641.819092 673.930176 660.083313 667.038818 676.002441 L 653.044373 708.349976 L 602.850342 625.813538 Z"/>
    </g>
</svg>
