<svg xmlns="http://www.w3.org/2000/svg" version="1.1" xmlns:xlink="http://www.w3.org/1999/xlink" xmlns:svgjs="http://svgjs.dev/svgjs" width="991" height="991"><svg width="991" height="991" viewBox="0 0 991 991" xmlns="http://www.w3.org/2000/svg">
    <g id="SvgjsG1067">
        <path id="SvgjsPath1066" fill="#ff9e5b" fill-rule="evenodd" stroke="none" d="M 860 495.5 C 860 294.1922 696.8078 131 495.5 131 C 294.1922 131 131 294.1922 131 495.5 C 131 696.8078 294.1922 860 495.5 860 C 696.8078 860 860 696.8078 860 495.5 Z"></path>
        <path id="SvgjsPath1065" fill="#000000" fill-rule="evenodd" stroke="none" d="M 925 495.5 C 925 258.293701 732.706299 66 495.5 66 C 258.293701 66 66 258.293701 66 495.5 C 66 732.706299 258.293701 925 495.5 925 C 732.706299 925 925 732.706299 925 495.5 Z M 495.5 131 C 696.8078 131 860 294.1922 860 495.5 C 860 696.8078 696.8078 860 495.5 860 C 294.1922 860 131 696.8078 131 495.5 C 131 294.1922 294.1922 131 495.5 131 Z"></path>
    </g>
    <g id="SvgjsG1064">
        <path id="SvgjsPath1063" fill="#000000" stroke="none" d="M 665.407227 220.214966 C 545.281189 434.421631 472.594574 624.166809 445.734131 790.424194 C 519.945374 687.320801 588.767456 580.40271 651.949829 470.190186 C 654.615906 465.48584 660.573975 463.731079 665.343201 466.284668 C 670.112427 468.838379 671.985291 474.764709 669.544067 479.598877 C 612.891113 591.739868 532.038879 720.87915 444.43158 854.711304 L 478.971008 902.424438 L 774.219299 391.039307 C 751.346619 362.049683 708.971008 300.572571 690.157532 223.628052 C 688.872375 218.240845 684.404846 214.213013 678.946472 213.459167 C 673.466187 212.742676 668.094482 215.385254 665.401062 220.22345 Z M 683.656067 367.864502 L 683.693481 367.886108 C 678.567627 376.764404 668.603821 381.650818 658.468445 380.344849 C 648.31781 378.979797 639.996765 371.678162 637.314575 361.78833 C 634.6922 351.882874 638.247681 341.398682 646.393494 335.162537 C 654.47998 328.942444 665.55249 328.191956 674.43103 333.317993 C 680.23761 336.670349 684.478333 342.215698 686.182678 348.694031 C 687.945984 355.156494 687.046082 362.079102 683.693481 367.885925 Z"></path>
        <path id="SvgjsPath1062" fill="#000000" stroke="none" d="M 427.921173 540.194397 L 461.215973 593.78186 C 495.789459 490.469788 538.55957 390.089661 589.079468 293.588013 C 565.679993 296.311279 542.602417 301.418396 520.253723 308.895142 L 426.885406 470.61377 C 414.309326 492.223175 414.759247 518.955566 427.922852 540.191528 Z"></path>
        <path id="SvgjsPath1061" fill="#000000" stroke="none" d="M 428.634216 709.827393 C 434.350281 685.305908 440.911438 660.273682 448.487885 634.779114 L 400.404694 557.31958 L 400.383057 557.357056 C 380.794342 525.968262 380.111938 486.314728 398.679291 454.32782 L 482.618347 308.941101 C 467.297089 312.033142 452.42334 317.031921 438.351288 323.842468 C 411.561279 337.195557 389.309174 358.262878 374.566315 384.316589 L 343.248627 438.560364 L 291.851196 408.886047 L 311.857605 374.233948 C 313.99881 370.525269 314.614136 366.085449 313.490204 361.889709 C 312.403412 357.715942 309.650665 354.178528 305.904144 352.015503 C 302.157715 349.852478 297.755676 349.258911 293.559937 350.382935 C 289.364594 351.50708 285.82724 354.259888 283.685791 357.968994 L 263.679413 392.621033 L 239.629196 378.735657 C 235.882965 376.572754 231.443176 375.957397 227.247543 377.081482 C 223.073776 378.168213 219.536377 380.920959 217.373337 384.667419 C 215.210449 388.413635 214.595123 392.853455 215.740814 397.011719 C 216.864899 401.207031 219.617661 404.744446 223.364182 406.907471 L 247.414398 420.792908 L 227.408005 455.444946 C 225.245209 459.19104 224.651398 463.593445 225.775406 467.789246 C 226.899506 471.984558 229.593277 475.53772 233.339722 477.700745 C 237.086243 479.8638 241.547318 480.441467 245.705658 479.295959 C 249.900955 478.171814 253.416763 475.456421 255.579803 471.709961 L 275.586182 437.057861 L 326.983612 466.732178 L 281.477142 545.551697 C 278.600586 550.534058 278.599976 556.677429 281.421722 561.652893 C 284.259094 566.6875 289.535187 569.833618 295.264801 569.944885 L 342.787231 570.859497 L 319.212311 611.692383 C 309.976807 627.688782 309.05838 647.187866 316.79071 663.988892 L 332.493378 698.12854 L 383.990753 608.932495 Z"></path>
    </g>
</svg><style>@media (prefers-color-scheme: light) { :root { filter: none; } }
@media (prefers-color-scheme: dark) { :root { filter: none; } }
</style></svg>